# xmcd
#
# Track frame offsets:
#	150
#	12366
#	28638
#	51083
#	68754
#	73277
#	90328
#	113626
#
# Disc length: 1557 seconds
#
# Revision: 1
# Processed by: cddbd v1.5.2PL0 Copyright (c) Steve Scherf et al.
# Submitted via: audiograbber 1.83.01
#
DISCID=62061308
DTITLE=Lisa Marr and Soda - Sing You Some Songs
DYEAR=1900
DGENRE=
TTITLE0=Toro Toro Toro
TTITLE1=July
TTITLE2=Come On William
TTITLE3=Mystery Song
TTITLE4=The Starry Life
TTITLE5=Who Do You Love
TTITLE6=Shuckin' Sugar
TTITLE7=Days By Number
EXTD=
EXTT0=
EXTT1=
EXTT2=
EXTT3=
EXTT4=
EXTT5=
EXTT6=
EXTT7=
PLAYORDER=
